<?xml version="1.0" encoding="UTF-8"?>
<svg width="40px" height="40px" viewBox="0 0 40 40" version="1.1" xmlns="http://www.w3.org/2000/svg" xmlns:xlink="http://www.w3.org/1999/xlink">
    <!-- Generator: Sketch 42 (36781) - http://www.bohemiancoding.com/sketch -->
    <title>BarGraph.icon</title>
    <desc>Created with Sketch.</desc>
    <defs></defs>
    <g id="Icons" stroke="none" stroke-width="1" fill="none" fill-rule="evenodd" stroke-linecap="round">
        <g id="BarGraph.icon" stroke="#000000" stroke-width="2">
            <g id="Bar-Graph" transform="translate(10.000000, 10.000000)">
                <path d="M4.28571429,19.5238095 C4.28571429,19.7866667 4.07238095,20 3.80952381,20 L0.476190476,20 C0.213333333,20 0,19.7866667 0,19.5238095 L0,7.61904762 C0,7.35619048 0.213333333,7.14285714 0.476190476,7.14285714 L3.80952381,7.14285714 C4.07238095,7.14285714 4.28571429,7.35619048 4.28571429,7.61904762 L4.28571429,19.5238095 L4.28571429,19.5238095 Z" id="Stroke-274"></path>
                <path d="M20.4761905,19.5238095 C20.4761905,19.7866667 20.2628571,20 20,20 L16.6666667,20 C16.4038095,20 16.1904762,19.7866667 16.1904762,19.5238095 L16.1904762,12.3809524 C16.1904762,12.1180952 16.4038095,11.9047619 16.6666667,11.9047619 L20,11.9047619 C20.2628571,11.9047619 20.4761905,12.1180952 20.4761905,12.3809524 L20.4761905,19.5238095 L20.4761905,19.5238095 Z" id="Stroke-276"></path>
                <path d="M12.3809524,19.5238095 C12.3809524,19.7866667 12.167619,20 11.9047619,20 L8.57142857,20 C8.30857143,20 8.0952381,19.7866667 8.0952381,19.5238095 L8.0952381,0.476190476 C8.0952381,0.213333333 8.30857143,0 8.57142857,0 L11.9047619,0 C12.167619,0 12.3809524,0.213333333 12.3809524,0.476190476 L12.3809524,19.5238095 L12.3809524,19.5238095 Z" id="Stroke-278"></path>
            </g>
        </g>
    </g>
</svg>