<?xml version="1.0" encoding="UTF-8"?>
<svg width="20px" height="20px" viewBox="0 0 20 20" version="1.1" xmlns="http://www.w3.org/2000/svg" xmlns:xlink="http://www.w3.org/1999/xlink">
    <!-- Generator: Sketch 42 (36781) - http://www.bohemiancoding.com/sketch -->
    <title>Interval.icon</title>
    <desc>Created with Sketch.</desc>
    <defs></defs>
    <g id="Icons" stroke="none" stroke-width="1" fill="none" fill-rule="evenodd">
        <g id="Interval.icon">
            <g id="Two-Point-Icon" transform="translate(0.000000, 5.000000)">
                <path d="M9.50036619,2 L10.4996338,2 C11.4118401,0.785553298 12.8641822,0 14.5,0 C17.2614237,0 19.5,2.23857625 19.5,5 C19.5,7.76142375 17.2614237,10 14.5,10 C12.8641822,10 11.4118401,9.2144467 10.4996338,8 L9.50036619,8 C8.58815986,9.2144467 7.13581783,10 5.5,10 C2.73857625,10 0.5,7.76142375 0.5,5 C0.5,2.23857625 2.73857625,0 5.5,0 C7.13581783,0 8.58815986,0.785553298 9.50036619,2 Z" id="Combined-Shape" stroke="#000000"></path>
                <path d="M7.99011354,4 L11.8845849,4 C12.2854584,2.9588154 13.2953382,2.21999979 14.4777776,2.21999979 C16.0119019,2.21999979 17.2555554,3.46365326 17.2555554,4.99777757 C17.2555554,6.53190187 16.0119019,7.77555535 14.4777776,7.77555535 C13.2970215,7.77555535 12.2883341,7.0388418 11.8863007,6 L7.99011354,6 C7.58865935,7.04001336 6.57937557,7.77777778 5.39777766,7.77777778 C3.86365336,7.77777778 2.61999989,6.5341243 2.61999989,5 C2.61999989,3.46587569 3.86365336,2.22222222 5.39777766,2.22222222 C6.57937557,2.22222222 7.58865935,2.95998664 7.99011354,4 Z" id="Combined-Shape" fill="#000000"></path>
            </g>
        </g>
    </g>
</svg>