<?xml version="1.0" encoding="UTF-8"?>
<svg width="40px" height="40px" viewBox="0 0 40 40" version="1.1" xmlns="http://www.w3.org/2000/svg" xmlns:xlink="http://www.w3.org/1999/xlink">
    <!-- Generator: Sketch 42 (36781) - http://www.bohemiancoding.com/sketch -->
    <title>Table.icon</title>
    <desc>Created with Sketch.</desc>
    <defs></defs>
    <g id="Icons" stroke="none" stroke-width="1" fill="none" fill-rule="evenodd" stroke-linecap="round" stroke-linejoin="round">
        <g id="Table.icon" stroke="#000000" stroke-width="2">
            <g id="Table-Icon" transform="translate(10.000000, 10.000000)">
                <path d="M7.89473684,7.36842105 C7.89473684,7.65894737 7.65894737,7.89473684 7.36842105,7.89473684 L0.526315789,7.89473684 C0.235789474,7.89473684 0,7.65894737 0,7.36842105 L0,0.526315789 C0,0.235789474 0.235789474,0 0.526315789,0 L7.36842105,0 C7.65894737,0 7.89473684,0.235789474 7.89473684,0.526315789 L7.89473684,7.36842105 L7.89473684,7.36842105 Z" id="Stroke-128"></path>
                <path d="M20,7.36842105 C20,7.65894737 19.7642105,7.89473684 19.4736842,7.89473684 L12.6315789,7.89473684 C12.3410526,7.89473684 12.1052632,7.65894737 12.1052632,7.36842105 L12.1052632,0.526315789 C12.1052632,0.235789474 12.3410526,0 12.6315789,0 L19.4736842,0 C19.7642105,0 20,0.235789474 20,0.526315789 L20,7.36842105 L20,7.36842105 Z" id="Stroke-130"></path>
                <path d="M7.89473684,19.4736842 C7.89473684,19.7642105 7.65894737,20 7.36842105,20 L0.526315789,20 C0.235789474,20 0,19.7642105 0,19.4736842 L0,12.6315789 C0,12.3410526 0.235789474,12.1052632 0.526315789,12.1052632 L7.36842105,12.1052632 C7.65894737,12.1052632 7.89473684,12.3410526 7.89473684,12.6315789 L7.89473684,19.4736842 L7.89473684,19.4736842 Z" id="Stroke-132"></path>
                <path d="M20,19.4736842 C20,19.7642105 19.7642105,20 19.4736842,20 L12.6315789,20 C12.3410526,20 12.1052632,19.7642105 12.1052632,19.4736842 L12.1052632,12.6315789 C12.1052632,12.3410526 12.3410526,12.1052632 12.6315789,12.1052632 L19.4736842,12.1052632 C19.7642105,12.1052632 20,12.3410526 20,12.6315789 L20,19.4736842 L20,19.4736842 Z" id="Stroke-134"></path>
            </g>
        </g>
    </g>
</svg>