<svg id="Layer_1" data-name="Layer 1" xmlns="http://www.w3.org/2000/svg" viewBox="0 0 20 20"><defs><style>.cls-1{fill:#fff;}</style></defs><title>Nulogy Icon</title><path class="cls-1" d="M10,20A10,10,0,1,1,20,10,10,10,0,0,1,10,20M10,1.56A8.44,8.44,0,1,0,18.44,10,8.45,8.45,0,0,0,10,1.56"/><path class="cls-1" d="M13.41,6.05L15,6.67v5.57c0,1.2-1.48,1.41-2.48,1.55,0.57-.14.93-0.3,0.93-1.55v-5l-1.55-.62ZM6.9,13.48V10.08a1,1,0,0,1,.57-0.86l1.6-.69V10.7l1.55,0.93c0.31,0.16.93,0.16,0.93-.31V10.39l-0.62-.31V5.74L6.21,7.48A1.9,1.9,0,0,0,5,9.15v5.11Z"/></svg>